<mxGraphModel dx="0" dy="0" grid="1" gridSize="10" guides="1" tooltips="1" connect="1" arrows="1" fold="1" page="0" pageScale="1" background="none" math="0" shadow="0">
  <root>
    <mxCell id="0" />
    <mxCell id="1" parent="0" />
    <mxCell id="node20" parent="1" vertex="1" value="&lt;p style=&quot;margin:0px;margin-top:4px;text-align:center;&quot;&gt;&lt;b&gt;AuthController&lt;/b&gt;&lt;/p&gt;&lt;hr size=&quot;1&quot;/&gt;&lt;p style=&quot;margin:0 0 0 4px;line-height:1.6;&quot;&gt; roleRepository: RoleRepository&lt;br/&gt; jwtUtils: JwtUtils&lt;br/&gt; logger: Logger&lt;br/&gt; authenticationManager: AuthenticationManager&lt;br/&gt; userRepository: UserRepository&lt;br/&gt; encoder: PasswordEncoder&lt;br/&gt; authenticateUser(LoginRequest): ResponseEntity&amp;lt;?&amp;gt;&lt;br/&gt; registerUser(SignupRequest): ResponseEntity&amp;lt;?&amp;gt;&lt;br/&gt; handleValidationExceptions(MethodArgumentNotValidException): ResponseEntity&amp;lt;?&amp;gt;&lt;/p&gt;" style="verticalAlign=top;align=left;overflow=fill;fontSize=14;fontFamily=Helvetica;html=1;rounded=0;shadow=0;comic=0;labelBackgroundColor=none;strokeWidth=1;">
      <mxGeometry x="-317" y="2414" width="638" height="252" as="geometry" />
    </mxCell>
    <mxCell id="node44" parent="1" vertex="1" value="&lt;p style=&quot;margin:0px;margin-top:4px;text-align:center;&quot;&gt;&lt;b&gt;ERole&lt;/b&gt;&lt;/p&gt;&lt;hr size=&quot;1&quot;/&gt;&lt;p style=&quot;margin:0 0 0 4px;line-height:1.6;&quot;&gt; ROLE_MODERATOR: ERole&lt;/p&gt;" style="verticalAlign=top;align=left;overflow=fill;fontSize=14;fontFamily=Helvetica;html=1;rounded=0;shadow=0;comic=0;labelBackgroundColor=none;strokeWidth=1;">
      <mxGeometry x="-249" y="290" width="222" height="65" as="geometry" />
    </mxCell>
    <mxCell id="node12" parent="1" vertex="1" value="&lt;p style=&quot;margin:0px;margin-top:4px;text-align:center;&quot;&gt;&lt;b&gt;FilmRecomApplication&lt;/b&gt;&lt;/p&gt;&lt;hr size=&quot;1&quot;/&gt;&lt;p style=&quot;margin:0 0 0 4px;line-height:1.6;&quot;&gt; main(String[]): void&lt;/p&gt;" style="verticalAlign=top;align=left;overflow=fill;fontSize=14;fontFamily=Helvetica;html=1;rounded=0;shadow=0;comic=0;labelBackgroundColor=none;strokeWidth=1;">
      <mxGeometry x="413" y="290" width="179" height="65" as="geometry" />
    </mxCell>
    <mxCell id="node18" parent="1" vertex="1" value="&lt;p style=&quot;margin:0px;margin-top:4px;text-align:center;&quot;&gt;&lt;b&gt;Genre&lt;/b&gt;&lt;/p&gt;&lt;hr size=&quot;1&quot;/&gt;&lt;p style=&quot;margin:0 0 0 4px;line-height:1.6;&quot;&gt; movies: Set&amp;lt;Movie&amp;gt;&lt;br/&gt; tmdbId: Long&lt;br/&gt; name: String&lt;br/&gt; id: Long&lt;/p&gt;" style="verticalAlign=top;align=left;overflow=fill;fontSize=14;fontFamily=Helvetica;html=1;rounded=0;shadow=0;comic=0;labelBackgroundColor=none;strokeWidth=1;">
      <mxGeometry x="810" y="1714" width="184" height="143" as="geometry" />
    </mxCell>
    <mxCell id="node25" parent="1" vertex="1" value="&lt;p style=&quot;margin:0px;margin-top:4px;text-align:center;&quot;&gt;&lt;b&gt;JpaRepository&lt;/b&gt;&lt;/p&gt;&lt;hr size=&quot;1&quot;/&gt;" style="verticalAlign=top;align=left;overflow=fill;fontSize=14;fontFamily=Helvetica;html=1;rounded=0;shadow=0;comic=0;labelBackgroundColor=none;strokeWidth=1;">
      <mxGeometry x="-219" y="3168" width="123" height="27" as="geometry" />
    </mxCell>
    <mxCell id="node7" parent="1" vertex="1" value="&lt;p style=&quot;margin:0px;margin-top:4px;text-align:center;&quot;&gt;&lt;b&gt;JwtResponse&lt;/b&gt;&lt;/p&gt;&lt;hr size=&quot;1&quot;/&gt;&lt;p style=&quot;margin:0 0 0 4px;line-height:1.6;&quot;&gt; email: String&lt;br/&gt; username: String&lt;br/&gt; token: String&lt;br/&gt; id: Long&lt;br/&gt; roles: List&amp;lt;String&amp;gt;&lt;/p&gt;" style="verticalAlign=top;align=left;overflow=fill;fontSize=14;fontFamily=Helvetica;html=1;rounded=0;shadow=0;comic=0;labelBackgroundColor=none;strokeWidth=1;">
      <mxGeometry x="1255" y="2782" width="174" height="156" as="geometry" />
    </mxCell>
    <mxCell id="node23" parent="1" vertex="1" value="&lt;p style=&quot;margin:0px;margin-top:4px;text-align:center;&quot;&gt;&lt;b&gt;JwtResponse&lt;/b&gt;&lt;/p&gt;&lt;hr size=&quot;1&quot;/&gt;&lt;p style=&quot;margin:0 0 0 4px;line-height:1.6;&quot;&gt; token: String&lt;br/&gt; email: String&lt;br/&gt; roles: List&amp;lt;String&amp;gt;&lt;br/&gt; type: String&lt;br/&gt; id: Long&lt;br/&gt; username: String&lt;br/&gt; JwtResponse(String, Long, String, String, List&amp;lt;String&amp;gt;): &lt;br/&gt; getUsername(): String&lt;br/&gt; getTokenType(): String&lt;br/&gt; getId(): Long&lt;br/&gt; getAccessToken(): String&lt;br/&gt; setId(Long): void&lt;br/&gt; getRoles(): List&amp;lt;String&amp;gt;&lt;br/&gt; getEmail(): String&lt;br/&gt; setTokenType(String): void&lt;br/&gt; setAccessToken(String): void&lt;br/&gt; setUsername(String): void&lt;br/&gt; setEmail(String): void&lt;/p&gt;" style="verticalAlign=top;align=left;overflow=fill;fontSize=14;fontFamily=Helvetica;html=1;rounded=0;shadow=0;comic=0;labelBackgroundColor=none;strokeWidth=1;">
      <mxGeometry x="444" y="1066" width="437" height="468" as="geometry" />
    </mxCell>
    <mxCell id="node10" parent="1" vertex="1" value="&lt;p style=&quot;margin:0px;margin-top:4px;text-align:center;&quot;&gt;&lt;b&gt;LoginRequest&lt;/b&gt;&lt;/p&gt;&lt;hr size=&quot;1&quot;/&gt;&lt;p style=&quot;margin:0 0 0 4px;line-height:1.6;&quot;&gt; username: String&lt;br/&gt; password: String&lt;/p&gt;" style="verticalAlign=top;align=left;overflow=fill;fontSize=14;fontFamily=Helvetica;html=1;rounded=0;shadow=0;comic=0;labelBackgroundColor=none;strokeWidth=1;">
      <mxGeometry x="861" y="278" width="162" height="91" as="geometry" />
    </mxCell>
    <mxCell id="node38" parent="1" vertex="1" value="&lt;p style=&quot;margin:0px;margin-top:4px;text-align:center;&quot;&gt;&lt;b&gt;MessageResponse&lt;/b&gt;&lt;/p&gt;&lt;hr size=&quot;1&quot;/&gt;&lt;p style=&quot;margin:0 0 0 4px;line-height:1.6;&quot;&gt; message: String&lt;br/&gt; setMessage(String): void&lt;br/&gt; getMessage(): String&lt;br/&gt; MessageResponse(String): &lt;/p&gt;" style="verticalAlign=top;align=left;overflow=fill;fontSize=14;fontFamily=Helvetica;html=1;rounded=0;shadow=0;comic=0;labelBackgroundColor=none;strokeWidth=1;">
      <mxGeometry x="-114" y="94" width="233" height="143" as="geometry" />
    </mxCell>
    <mxCell id="node2" parent="1" vertex="1" value="&lt;p style=&quot;margin:0px;margin-top:4px;text-align:center;&quot;&gt;&lt;b&gt;Movie&lt;/b&gt;&lt;/p&gt;&lt;hr size=&quot;1&quot;/&gt;&lt;p style=&quot;margin:0 0 0 4px;line-height:1.6;&quot;&gt; ratings: Set&amp;lt;Rating&amp;gt;&lt;br/&gt; watchlists: Set&amp;lt;Watchlist&amp;gt;&lt;br/&gt; voteCount: Integer&lt;br/&gt; posterPath: String&lt;br/&gt; runtime: Integer&lt;br/&gt; originalLanguage: String&lt;br/&gt; status: String&lt;br/&gt; genres: Set&amp;lt;Genre&amp;gt;&lt;br/&gt; backdropPath: String&lt;br/&gt; posterUrl: String&lt;br/&gt; releaseDate: LocalDate&lt;br/&gt; popularity: Double&lt;br/&gt; originalTitle: String&lt;br/&gt; voteAverage: Double&lt;br/&gt; userMovieLists: Set&amp;lt;UserMovieList&amp;gt;&lt;br/&gt; title: String&lt;br/&gt; overview: String&lt;br/&gt; releaseYear: Integer&lt;br/&gt; tmdbId: Long&lt;br/&gt; adult: Boolean&lt;br/&gt; id: Long&lt;br/&gt; getPosterUrl(): String&lt;/p&gt;" style="verticalAlign=top;align=left;overflow=fill;fontSize=14;fontFamily=Helvetica;html=1;rounded=0;shadow=0;comic=0;labelBackgroundColor=none;strokeWidth=1;">
      <mxGeometry x="934" y="1018" width="297" height="564" as="geometry" />
    </mxCell>
    <mxCell id="node28" parent="1" vertex="1" value="&lt;p style=&quot;margin:0px;margin-top:4px;text-align:center;&quot;&gt;&lt;b&gt;MovieController&lt;/b&gt;&lt;/p&gt;&lt;hr size=&quot;1&quot;/&gt;&lt;p style=&quot;margin:0 0 0 4px;line-height:1.6;&quot;&gt; movieRepository: MovieRepository&lt;br/&gt; ratingRepository: RatingRepository&lt;br/&gt; movieService: MovieService&lt;br/&gt; recommendationService: RecommendationService&lt;br/&gt; tmdbService: TMDBService&lt;br/&gt; logger: Logger&lt;br/&gt; getAllMovies(): ResponseEntity&amp;lt;List&amp;lt;MovieDTO&amp;gt;&amp;gt;&lt;br/&gt; getTopRatedMovies(): ResponseEntity&amp;lt;List&amp;lt;MovieDTO&amp;gt;&amp;gt;&lt;br/&gt; rateMovie(Long, double): ResponseEntity&amp;lt;Rating&amp;gt;&lt;br/&gt; getMoviesByGenre(String): ResponseEntity&amp;lt;List&amp;lt;MovieDTO&amp;gt;&amp;gt;&lt;br/&gt; getPopularMovies(int): ResponseEntity&amp;lt;MovieSearchResponse&amp;gt;&lt;br/&gt; searchMovies(String): ResponseEntity&amp;lt;List&amp;lt;MovieDTO&amp;gt;&amp;gt;&lt;br/&gt; getRecommendations(int): ResponseEntity&amp;lt;List&amp;lt;MovieDTO&amp;gt;&amp;gt;&lt;br/&gt; getMovieById(Long): ResponseEntity&amp;lt;MovieDTO&amp;gt;&lt;br/&gt; getMoviesByYear(Integer): ResponseEntity&amp;lt;List&amp;lt;MovieDTO&amp;gt;&amp;gt;&lt;/p&gt;" style="verticalAlign=top;align=left;overflow=fill;fontSize=14;fontFamily=Helvetica;html=1;rounded=0;shadow=0;comic=0;labelBackgroundColor=none;strokeWidth=1;">
      <mxGeometry x="-142" y="1102" width="488" height="396" as="geometry" />
    </mxCell>
    <mxCell id="node41" parent="1" vertex="1" value="&lt;p style=&quot;margin:0px;margin-top:4px;text-align:center;&quot;&gt;&lt;b&gt;MovieRepository&lt;/b&gt;&lt;/p&gt;&lt;hr size=&quot;1&quot;/&gt;&lt;p style=&quot;margin:0 0 0 4px;line-height:1.6;&quot;&gt; findByGenres_NameIgnoreCase(String): List&amp;lt;Movie&amp;gt;&lt;br/&gt; findTopRatedMovies(): List&amp;lt;Movie&amp;gt;&lt;br/&gt; findByVoteAverageGreaterThanEqual(double): List&amp;lt;Movie&amp;gt;&lt;br/&gt; findByGenres_Id(Long): List&amp;lt;Movie&amp;gt;&lt;br/&gt; findByReleaseYear(Integer): List&amp;lt;Movie&amp;gt;&lt;/p&gt;" style="verticalAlign=top;align=left;overflow=fill;fontSize=14;fontFamily=Helvetica;html=1;rounded=0;shadow=0;comic=0;labelBackgroundColor=none;strokeWidth=1;">
      <mxGeometry x="136" y="3742" width="452" height="156" as="geometry" />
    </mxCell>
    <mxCell id="node31" parent="1" vertex="1" value="&lt;p style=&quot;margin:0px;margin-top:4px;text-align:center;&quot;&gt;&lt;b&gt;MovieService&lt;/b&gt;&lt;/p&gt;&lt;hr size=&quot;1&quot;/&gt;&lt;p style=&quot;margin:0 0 0 4px;line-height:1.6;&quot;&gt; tmdbService: TMDBService&lt;br/&gt; movieRepository: MovieRepository&lt;br/&gt; logger: Logger&lt;br/&gt; convertToMovie(MovieDTO): Movie&lt;br/&gt; getTopRatedMovies(): List&amp;lt;Movie&amp;gt;&lt;br/&gt; getMoviesByYear(Integer): List&amp;lt;Movie&amp;gt;&lt;br/&gt; searchMovies(String): List&amp;lt;Movie&amp;gt;&lt;br/&gt; findByTmdbId(Long): Optional&amp;lt;Movie&amp;gt;&lt;br/&gt; getMovieDetails(Long): Movie&lt;br/&gt; getPopularMovies(int): List&amp;lt;Movie&amp;gt;&lt;br/&gt; saveMovie(Movie): Movie&lt;br/&gt; getMoviesByGenre(String): List&amp;lt;Movie&amp;gt;&lt;/p&gt;" style="verticalAlign=top;align=left;overflow=fill;fontSize=14;fontFamily=Helvetica;html=1;rounded=0;shadow=0;comic=0;labelBackgroundColor=none;strokeWidth=1;">
      <mxGeometry x="-318" y="638" width="321" height="324" as="geometry" />
    </mxCell>
    <mxCell id="node8" parent="1" vertex="1" value="&lt;p style=&quot;margin:0px;margin-top:4px;text-align:center;&quot;&gt;&lt;b&gt;Rating&lt;/b&gt;&lt;/p&gt;&lt;hr size=&quot;1&quot;/&gt;&lt;p style=&quot;margin:0 0 0 4px;line-height:1.6;&quot;&gt; review: String&lt;br/&gt; score: double&lt;br/&gt; id: Long&lt;br/&gt; user: User&lt;br/&gt; ratedAt: LocalDateTime&lt;br/&gt; movie: Movie&lt;br/&gt; onCreate(): void&lt;/p&gt;" style="verticalAlign=top;align=left;overflow=fill;fontSize=14;fontFamily=Helvetica;html=1;rounded=0;shadow=0;comic=0;labelBackgroundColor=none;strokeWidth=1;">
      <mxGeometry x="579" y="2438" width="206" height="204" as="geometry" />
    </mxCell>
    <mxCell id="node21" parent="1" vertex="1" value="&lt;p style=&quot;margin:0px;margin-top:4px;text-align:center;&quot;&gt;&lt;b&gt;RatingController&lt;/b&gt;&lt;/p&gt;&lt;hr size=&quot;1&quot;/&gt;&lt;p style=&quot;margin:0 0 0 4px;line-height:1.6;&quot;&gt; logger: Logger&lt;br/&gt; ratingService: RatingService&lt;br/&gt; getAverageRatingForMovie(Long): ResponseEntity&amp;lt;Double&amp;gt;&lt;br/&gt; rateMovie(Long, Integer, String): ResponseEntity&amp;lt;RatingDTO&amp;gt;&lt;br/&gt; convertToDTO(Rating): RatingDTO&lt;br/&gt; getUserRatings(Long): ResponseEntity&amp;lt;List&amp;lt;RatingDTO&amp;gt;&amp;gt;&lt;/p&gt;" style="verticalAlign=top;align=left;overflow=fill;fontSize=14;fontFamily=Helvetica;html=1;rounded=0;shadow=0;comic=0;labelBackgroundColor=none;strokeWidth=1;">
      <mxGeometry x="385" y="710" width="475" height="180" as="geometry" />
    </mxCell>
    <mxCell id="node4" parent="1" vertex="1" value="&lt;p style=&quot;margin:0px;margin-top:4px;text-align:center;&quot;&gt;&lt;b&gt;RatingRepository&lt;/b&gt;&lt;/p&gt;&lt;hr size=&quot;1&quot;/&gt;&lt;p style=&quot;margin:0 0 0 4px;line-height:1.6;&quot;&gt; findByMovieId(Long): List&amp;lt;Rating&amp;gt;&lt;br/&gt; getAverageRatingForMovie(Long): Double&lt;br/&gt; deleteByUserAndMovie(User, Movie): void&lt;br/&gt; calculateAverageRatingByMovie(Movie): Double&lt;br/&gt; findByUserIdAndMovieId(Long, Long): Rating&lt;br/&gt; findByUserId(Long): List&amp;lt;Rating&amp;gt;&lt;br/&gt; existsByUserAndMovie(User, Movie): boolean&lt;/p&gt;" style="verticalAlign=top;align=left;overflow=fill;fontSize=14;fontFamily=Helvetica;html=1;rounded=0;shadow=0;comic=0;labelBackgroundColor=none;strokeWidth=1;">
      <mxGeometry x="916" y="698" width="373" height="204" as="geometry" />
    </mxCell>
    <mxCell id="node39" parent="1" vertex="1" value="&lt;p style=&quot;margin:0px;margin-top:4px;text-align:center;&quot;&gt;&lt;b&gt;RatingService&lt;/b&gt;&lt;/p&gt;&lt;hr size=&quot;1&quot;/&gt;&lt;p style=&quot;margin:0 0 0 4px;line-height:1.6;&quot;&gt; userService: UserService&lt;br/&gt; ratingRepository: RatingRepository&lt;br/&gt; tmdbService: TMDBService&lt;br/&gt; movieRepository: MovieRepository&lt;br/&gt; getAverageRatingForMovie(Long): Double&lt;br/&gt; getUserRatings(Long): List&amp;lt;Rating&amp;gt;&lt;br/&gt; rateMovie(Long, Long, Integer, String): Rating&lt;/p&gt;" style="verticalAlign=top;align=left;overflow=fill;fontSize=14;fontFamily=Helvetica;html=1;rounded=0;shadow=0;comic=0;labelBackgroundColor=none;strokeWidth=1;">
      <mxGeometry x="442" y="3458" width="361" height="204" as="geometry" />
    </mxCell>
    <mxCell id="node16" parent="1" vertex="1" value="&lt;p style=&quot;margin:0px;margin-top:4px;text-align:center;&quot;&gt;&lt;b&gt;RecommendationController&lt;/b&gt;&lt;/p&gt;&lt;hr size=&quot;1&quot;/&gt;&lt;p style=&quot;margin:0 0 0 4px;line-height:1.6;&quot;&gt; logger: Logger&lt;br/&gt; recommendationService: RecommendationService&lt;br/&gt; getUserRecommendations(Long, Authentication): ResponseEntity&amp;lt;List&amp;lt;MovieDTO&amp;gt;&amp;gt;&lt;br/&gt; getSimilarMovies(Long): ResponseEntity&amp;lt;List&amp;lt;MovieDTO&amp;gt;&amp;gt;&lt;/p&gt;" style="verticalAlign=top;align=left;overflow=fill;fontSize=14;fontFamily=Helvetica;html=1;rounded=0;shadow=0;comic=0;labelBackgroundColor=none;strokeWidth=1;">
      <mxGeometry x="26" y="2114" width="632" height="143" as="geometry" />
    </mxCell>
    <mxCell id="node22" parent="1" vertex="1" value="&lt;p style=&quot;margin:0px;margin-top:4px;text-align:center;&quot;&gt;&lt;b&gt;RecommendationService&lt;/b&gt;&lt;/p&gt;&lt;hr size=&quot;1&quot;/&gt;&lt;p style=&quot;margin:0 0 0 4px;line-height:1.6;&quot;&gt; logger: Logger&lt;br/&gt; movieService: MovieService&lt;br/&gt; tmdbService: TMDBService&lt;br/&gt; getRecommendations(Long): List&amp;lt;MovieDTO&amp;gt;&lt;br/&gt; getPopularMovies(int): List&amp;lt;Movie&amp;gt;&lt;br/&gt; RecommendationService(MovieRepository, RatingRepository, UserRepository): &lt;br/&gt; getCollaborativeFilteringRecommendations(User, int): List&amp;lt;MovieDTO&amp;gt;&lt;br/&gt; getSimilarMovies(Long): List&amp;lt;MovieDTO&amp;gt;&lt;br/&gt; getUserRecommendations(Long): List&amp;lt;MovieDTO&amp;gt;&lt;br/&gt; convertToDTO(Movie): MovieDTO&lt;br/&gt; calculateUserSimilarity(User, User): double&lt;br/&gt; getContentBasedRecommendations(User, int): List&amp;lt;MovieDTO&amp;gt;&lt;/p&gt;" style="verticalAlign=top;align=left;overflow=fill;fontSize=14;fontFamily=Helvetica;html=1;rounded=0;shadow=0;comic=0;labelBackgroundColor=none;strokeWidth=1;">
      <mxGeometry x="774" y="3018" width="537" height="324" as="geometry" />
    </mxCell>
    <mxCell id="node0" parent="1" vertex="1" value="&lt;p style=&quot;margin:0px;margin-top:4px;text-align:center;&quot;&gt;&lt;b&gt;RegisterRequest&lt;/b&gt;&lt;/p&gt;&lt;hr size=&quot;1&quot;/&gt;&lt;p style=&quot;margin:0 0 0 4px;line-height:1.6;&quot;&gt; password: String&lt;br/&gt; email: String&lt;br/&gt; username: String&lt;/p&gt;" style="verticalAlign=top;align=left;overflow=fill;fontSize=14;fontFamily=Helvetica;html=1;rounded=0;shadow=0;comic=0;labelBackgroundColor=none;strokeWidth=1;">
      <mxGeometry x="1321" y="106" width="162" height="117" as="geometry" />
    </mxCell>
    <mxCell id="node3" parent="1" vertex="1" value="&lt;p style=&quot;margin:0px;margin-top:4px;text-align:center;&quot;&gt;&lt;b&gt;ResourceNotFoundException&lt;/b&gt;&lt;/p&gt;&lt;hr size=&quot;1&quot;/&gt;&lt;p style=&quot;margin:0 0 0 4px;line-height:1.6;&quot;&gt; ResourceNotFoundException(String): &lt;/p&gt;" style="verticalAlign=top;align=left;overflow=fill;fontSize=14;fontFamily=Helvetica;html=1;rounded=0;shadow=0;comic=0;labelBackgroundColor=none;strokeWidth=1;">
      <mxGeometry x="1170" y="510" width="305" height="65" as="geometry" />
    </mxCell>
    <mxCell id="node33" parent="1" vertex="1" value="&lt;p style=&quot;margin:0px;margin-top:4px;text-align:center;&quot;&gt;&lt;b&gt;Role&lt;/b&gt;&lt;/p&gt;&lt;hr size=&quot;1&quot;/&gt;&lt;p style=&quot;margin:0 0 0 4px;line-height:1.6;&quot;&gt; name: ERole&lt;br/&gt; id: Long&lt;/p&gt;" style="verticalAlign=top;align=left;overflow=fill;fontSize=14;fontFamily=Helvetica;html=1;rounded=0;shadow=0;comic=0;labelBackgroundColor=none;strokeWidth=1;">
      <mxGeometry x="-82" y="-282" width="128" height="91" as="geometry" />
    </mxCell>
    <mxCell id="node43" parent="1" vertex="1" value="&lt;p style=&quot;margin:0px;margin-top:4px;text-align:center;&quot;&gt;&lt;b&gt;RoleRepository&lt;/b&gt;&lt;/p&gt;&lt;hr size=&quot;1&quot;/&gt;&lt;p style=&quot;margin:0 0 0 4px;line-height:1.6;&quot;&gt; findByName(ERole): Optional&amp;lt;Role&amp;gt;&lt;br/&gt; existsByName(ERole): boolean&lt;/p&gt;" style="verticalAlign=top;align=left;overflow=fill;fontSize=14;fontFamily=Helvetica;html=1;rounded=0;shadow=0;comic=0;labelBackgroundColor=none;strokeWidth=1;">
      <mxGeometry x="-304" y="3778" width="293" height="91" as="geometry" />
    </mxCell>
    <mxCell id="node15" parent="1" vertex="1" value="&lt;p style=&quot;margin:0px;margin-top:4px;text-align:center;&quot;&gt;&lt;b&gt;RuntimeException&lt;/b&gt;&lt;/p&gt;&lt;hr size=&quot;1&quot;/&gt;" style="verticalAlign=top;align=left;overflow=fill;fontSize=14;fontFamily=Helvetica;html=1;rounded=0;shadow=0;comic=0;labelBackgroundColor=none;strokeWidth=1;">
      <mxGeometry x="1229" y="308" width="146" height="27" as="geometry" />
    </mxCell>
    <mxCell id="node40" parent="1" vertex="1" value="&lt;p style=&quot;margin:0px;margin-top:4px;text-align:center;&quot;&gt;&lt;b&gt;SecurityConfig&lt;/b&gt;&lt;/p&gt;&lt;hr size=&quot;1&quot;/&gt;&lt;p style=&quot;margin:0 0 0 4px;line-height:1.6;&quot;&gt; logger: Logger&lt;br/&gt; userDetailsService: UserDetailsServiceImpl&lt;br/&gt; passwordEncoder(): PasswordEncoder&lt;br/&gt; corsConfigurationSource(): CorsConfigurationSource&lt;br/&gt; filterChain(HttpSecurity): SecurityFilterChain&lt;br/&gt; authenticationManager(AuthenticationConfiguration): AuthenticationManager&lt;br/&gt; authenticationProvider(): DaoAuthenticationProvider&lt;br/&gt; authenticationJwtTokenFilter(): AuthTokenFilter&lt;/p&gt;" style="verticalAlign=top;align=left;overflow=fill;fontSize=14;fontFamily=Helvetica;html=1;rounded=0;shadow=0;comic=0;labelBackgroundColor=none;strokeWidth=1;">
      <mxGeometry x="-128" y="2746" width="581" height="228" as="geometry" />
    </mxCell>
    <mxCell id="node13" parent="1" vertex="1" value="&lt;p style=&quot;margin:0px;margin-top:4px;text-align:center;&quot;&gt;&lt;b&gt;SignupRequest&lt;/b&gt;&lt;/p&gt;&lt;hr size=&quot;1&quot;/&gt;&lt;p style=&quot;margin:0 0 0 4px;line-height:1.6;&quot;&gt; password: String&lt;br/&gt; username: String&lt;br/&gt; email: String&lt;br/&gt; roles: Set&amp;lt;String&amp;gt;&lt;/p&gt;" style="verticalAlign=top;align=left;overflow=fill;fontSize=14;fontFamily=Helvetica;html=1;rounded=0;shadow=0;comic=0;labelBackgroundColor=none;strokeWidth=1;">
      <mxGeometry x="797" y="474" width="171" height="143" as="geometry" />
    </mxCell>
    <mxCell id="node36" parent="1" vertex="1" value="&lt;p style=&quot;margin:0px;margin-top:4px;text-align:center;&quot;&gt;&lt;b&gt;TMDBConfig&lt;/b&gt;&lt;/p&gt;&lt;hr size=&quot;1&quot;/&gt;&lt;p style=&quot;margin:0 0 0 4px;line-height:1.6;&quot;&gt; apiKey: String&lt;br/&gt; baseUrl: String&lt;/p&gt;" style="verticalAlign=top;align=left;overflow=fill;fontSize=14;fontFamily=Helvetica;html=1;rounded=0;shadow=0;comic=0;labelBackgroundColor=none;strokeWidth=1;">
      <mxGeometry x="1069" y="3518" width="147" height="91" as="geometry" />
    </mxCell>
    <mxCell id="node19" parent="1" vertex="1" value="&lt;p style=&quot;margin:0px;margin-top:4px;text-align:center;&quot;&gt;&lt;b&gt;TMDBGenre&lt;/b&gt;&lt;/p&gt;&lt;hr size=&quot;1&quot;/&gt;" style="verticalAlign=top;align=left;overflow=fill;fontSize=14;fontFamily=Helvetica;html=1;rounded=0;shadow=0;comic=0;labelBackgroundColor=none;strokeWidth=1;">
      <mxGeometry x="168" y="-112" width="109" height="27" as="geometry" />
    </mxCell>
    <mxCell id="node24" parent="1" vertex="1" value="&lt;p style=&quot;margin:0px;margin-top:4px;text-align:center;&quot;&gt;&lt;b&gt;TMDBMovie&lt;/b&gt;&lt;/p&gt;&lt;hr size=&quot;1&quot;/&gt;" style="verticalAlign=top;align=left;overflow=fill;fontSize=14;fontFamily=Helvetica;html=1;rounded=0;shadow=0;comic=0;labelBackgroundColor=none;strokeWidth=1;">
      <mxGeometry x="88" y="-252" width="109" height="27" as="geometry" />
    </mxCell>
    <mxCell id="node42" parent="1" vertex="1" value="&lt;p style=&quot;margin:0px;margin-top:4px;text-align:center;&quot;&gt;&lt;b&gt;TMDBMovieDetails&lt;/b&gt;&lt;/p&gt;&lt;hr size=&quot;1&quot;/&gt;" style="verticalAlign=top;align=left;overflow=fill;fontSize=14;fontFamily=Helvetica;html=1;rounded=0;shadow=0;comic=0;labelBackgroundColor=none;strokeWidth=1;">
      <mxGeometry x="67" y="308" width="151" height="27" as="geometry" />
    </mxCell>
    <mxCell id="node5" parent="1" vertex="1" value="&lt;p style=&quot;margin:0px;margin-top:4px;text-align:center;&quot;&gt;&lt;b&gt;TMDBResponse&lt;/b&gt;&lt;/p&gt;&lt;hr size=&quot;1&quot;/&gt;" style="verticalAlign=top;align=left;overflow=fill;fontSize=14;fontFamily=Helvetica;html=1;rounded=0;shadow=0;comic=0;labelBackgroundColor=none;strokeWidth=1;">
      <mxGeometry x="256" y="-252" width="133" height="27" as="geometry" />
    </mxCell>
    <mxCell id="node6" parent="1" vertex="1" value="&lt;p style=&quot;margin:0px;margin-top:4px;text-align:center;&quot;&gt;&lt;b&gt;TMDBService&lt;/b&gt;&lt;/p&gt;&lt;hr size=&quot;1&quot;/&gt;&lt;p style=&quot;margin:0 0 0 4px;line-height:1.6;&quot;&gt; DATE_FORMATTER: DateTimeFormatter&lt;br/&gt; baseUrl: String&lt;br/&gt; logger: Logger&lt;br/&gt; IMAGE_BASE_URL: String&lt;br/&gt; TMDB_API_BASE_URL: String&lt;br/&gt; getMovieDetails(Long): Movie&lt;br/&gt; searchMovies(String, int): MovieSearchResponse&lt;br/&gt; fetchPopularMovies(): void&lt;br/&gt; searchMovieByTitle(String): Movie&lt;br/&gt; TMDBService(RestTemplate, MovieRepository, GenreRepository, String, String): &lt;br/&gt; createHeaders(): HttpHeaders&lt;br/&gt; getPopularMovies(int): MovieSearchResponse&lt;br/&gt; TMDBService(String, String, RestTemplate, MovieRepository, GenreRepository): &lt;br/&gt; saveMovieFromTMDB(TMDBMovie): Movie&lt;/p&gt;" style="verticalAlign=top;align=left;overflow=fill;fontSize=14;fontFamily=Helvetica;html=1;rounded=0;shadow=0;comic=0;labelBackgroundColor=none;strokeWidth=1;">
      <mxGeometry x="703" y="1994" width="478" height="372" as="geometry" />
    </mxCell>
    <mxCell id="node1" parent="1" vertex="1" value="&lt;p style=&quot;margin:0px;margin-top:4px;text-align:center;&quot;&gt;&lt;b&gt;User&lt;/b&gt;&lt;/p&gt;&lt;hr size=&quot;1&quot;/&gt;&lt;p style=&quot;margin:0 0 0 4px;line-height:1.6;&quot;&gt; username: String&lt;br/&gt; password: String&lt;br/&gt; email: String&lt;br/&gt; ratings: Set&amp;lt;Rating&amp;gt;&lt;br/&gt; userMovieLists: Set&amp;lt;UserMovieList&amp;gt;&lt;br/&gt; watchlists: Set&amp;lt;Watchlist&amp;gt;&lt;br/&gt; id: Long&lt;br/&gt; roles: Set&amp;lt;Role&amp;gt;&lt;br/&gt; User(String, String, String): &lt;br/&gt; setRoles(Set&amp;lt;Role&amp;gt;): void&lt;/p&gt;" style="verticalAlign=top;align=left;overflow=fill;fontSize=14;fontFamily=Helvetica;html=1;rounded=0;shadow=0;comic=0;labelBackgroundColor=none;strokeWidth=1;">
      <mxGeometry x="1054" y="2402" width="297" height="276" as="geometry" />
    </mxCell>
    <mxCell id="node27" parent="1" vertex="1" value="&lt;p style=&quot;margin:0px;margin-top:4px;text-align:center;&quot;&gt;&lt;b&gt;UserController&lt;/b&gt;&lt;/p&gt;&lt;hr size=&quot;1&quot;/&gt;&lt;p style=&quot;margin:0 0 0 4px;line-height:1.6;&quot;&gt; ratingRepository: RatingRepository&lt;br/&gt; userMovieListRepository: UserMovieListRepository&lt;br/&gt; movieRepository: MovieRepository&lt;br/&gt; userService: UserService&lt;br/&gt; userRepository: UserRepository&lt;br/&gt; getUserRatings(Long): ResponseEntity&amp;lt;List&amp;lt;?&amp;gt;&amp;gt;&lt;br/&gt; getUserLists(Long): ResponseEntity&amp;lt;List&amp;lt;UserMovieList&amp;gt;&amp;gt;&lt;br/&gt; getCurrentUser(): ResponseEntity&amp;lt;User&amp;gt;&lt;br/&gt; createUserList(Long, UserMovieListRequest): ResponseEntity&amp;lt;?&amp;gt;&lt;br/&gt; getUserByUsername(String): ResponseEntity&amp;lt;?&amp;gt;&lt;br/&gt; registerUser(RegisterRequest): ResponseEntity&amp;lt;?&amp;gt;&lt;br/&gt; getUserByEmail(String): ResponseEntity&amp;lt;?&amp;gt;&lt;/p&gt;" style="verticalAlign=top;align=left;overflow=fill;fontSize=14;fontFamily=Helvetica;html=1;rounded=0;shadow=0;comic=0;labelBackgroundColor=none;strokeWidth=1;">
      <mxGeometry x="134" y="1618" width="496" height="324" as="geometry" />
    </mxCell>
    <mxCell id="node37" parent="1" vertex="1" value="&lt;p style=&quot;margin:0px;margin-top:4px;text-align:center;&quot;&gt;&lt;b&gt;UserMovieListRepository&lt;/b&gt;&lt;/p&gt;&lt;hr size=&quot;1&quot;/&gt;&lt;p style=&quot;margin:0 0 0 4px;line-height:1.6;&quot;&gt; findByUserIdAndMovieId(Long, Long): UserMovieList&lt;br/&gt; existsByUserIdAndName(Long, String): boolean&lt;br/&gt; findByUserId(Long, Pageable): Page&amp;lt;UserMovieList&amp;gt;&lt;br/&gt; deleteByIdAndUserId(Long, Long): void&lt;br/&gt; countByUserId(Long): long&lt;br/&gt; findByUser(User): List&amp;lt;UserMovieList&amp;gt;&lt;br/&gt; findByUserId(Long): List&amp;lt;UserMovieList&amp;gt;&lt;br/&gt; findAllByMovieId(Long): List&amp;lt;UserMovieList&amp;gt;&lt;br/&gt; findByUserIdAndName(Long, String): Optional&amp;lt;UserMovieList&amp;gt;&lt;/p&gt;" style="verticalAlign=top;align=left;overflow=fill;fontSize=14;fontFamily=Helvetica;html=1;rounded=0;shadow=0;comic=0;labelBackgroundColor=none;strokeWidth=1;">
      <mxGeometry x="642" y="3694" width="481" height="252" as="geometry" />
    </mxCell>
    <mxCell id="node14" parent="1" vertex="1" value="&lt;p style=&quot;margin:0px;margin-top:4px;text-align:center;&quot;&gt;&lt;b&gt;UserMovieListRequest&lt;/b&gt;&lt;/p&gt;&lt;hr size=&quot;1&quot;/&gt;&lt;p style=&quot;margin:0 0 0 4px;line-height:1.6;&quot;&gt; movieId: Long&lt;br/&gt; name: String&lt;br/&gt; description: String&lt;/p&gt;" style="verticalAlign=top;align=left;overflow=fill;fontSize=14;fontFamily=Helvetica;html=1;rounded=0;shadow=0;comic=0;labelBackgroundColor=none;strokeWidth=1;">
      <mxGeometry x="295" y="106" width="174" height="117" as="geometry" />
    </mxCell>
    <mxCell id="node11" parent="1" vertex="1" value="&lt;p style=&quot;margin:0px;margin-top:4px;text-align:center;&quot;&gt;&lt;b&gt;UserRepository&lt;/b&gt;&lt;/p&gt;&lt;hr size=&quot;1&quot;/&gt;&lt;p style=&quot;margin:0 0 0 4px;line-height:1.6;&quot;&gt; existsByUsername(String): boolean&lt;br/&gt; findByUsernameWithRoles(String): Optional&amp;lt;User&amp;gt;&lt;br/&gt; existsByEmail(String): boolean&lt;/p&gt;" style="verticalAlign=top;align=left;overflow=fill;fontSize=14;fontFamily=Helvetica;html=1;rounded=0;shadow=0;comic=0;labelBackgroundColor=none;strokeWidth=1;">
      <mxGeometry x="523" y="106" width="398" height="117" as="geometry" />
    </mxCell>
    <mxCell id="node32" parent="1" vertex="1" value="&lt;p style=&quot;margin:0px;margin-top:4px;text-align:center;&quot;&gt;&lt;b&gt;UserService&lt;/b&gt;&lt;/p&gt;&lt;hr size=&quot;1&quot;/&gt;&lt;p style=&quot;margin:0 0 0 4px;line-height:1.6;&quot;&gt; roleRepository: RoleRepository&lt;br/&gt; passwordEncoder: PasswordEncoder&lt;br/&gt; userRepository: UserRepository&lt;br/&gt; findById(Long): User&lt;br/&gt; findByUsername(String): User&lt;br/&gt; existsByUsername(String): boolean&lt;br/&gt; existsByEmail(String): boolean&lt;br/&gt; registerUser(User): User&lt;br/&gt; findByEmail(String): User&lt;/p&gt;" style="verticalAlign=top;align=left;overflow=fill;fontSize=14;fontFamily=Helvetica;html=1;rounded=0;shadow=0;comic=0;labelBackgroundColor=none;strokeWidth=1;">
      <mxGeometry x="-308" y="1654" width="300" height="252" as="geometry" />
    </mxCell>
    <mxCell id="node9" parent="1" vertex="1" value="&lt;p style=&quot;margin:0px;margin-top:4px;text-align:center;&quot;&gt;&lt;b&gt;Watchlist&lt;/b&gt;&lt;/p&gt;&lt;hr size=&quot;1&quot;/&gt;&lt;p style=&quot;margin:0 0 0 4px;line-height:1.6;&quot;&gt; movie: Movie&lt;br/&gt; id: Long&lt;br/&gt; user: User&lt;br/&gt; addedAt: LocalDateTime&lt;br/&gt; status: WatchlistStatus&lt;br/&gt; onCreate(): void&lt;/p&gt;" style="verticalAlign=top;align=left;overflow=fill;fontSize=14;fontFamily=Helvetica;html=1;rounded=0;shadow=0;comic=0;labelBackgroundColor=none;strokeWidth=1;">
      <mxGeometry x="1056" y="70" width="212" height="180" as="geometry" />
    </mxCell>
    <mxCell id="node30" parent="1" vertex="1" value="&lt;p style=&quot;margin:0px;margin-top:4px;text-align:center;&quot;&gt;&lt;b&gt;WatchlistController&lt;/b&gt;&lt;/p&gt;&lt;hr size=&quot;1&quot;/&gt;&lt;p style=&quot;margin:0 0 0 4px;line-height:1.6;&quot;&gt; watchlistService: WatchlistService&lt;br/&gt; removeFromWatchlist(Long): ResponseEntity&amp;lt;Void&amp;gt;&lt;br/&gt; addToWatchlist(Long, WatchlistStatus): ResponseEntity&amp;lt;Watchlist&amp;gt;&lt;br/&gt; getWatchlistByStatus(WatchlistStatus): ResponseEntity&amp;lt;List&amp;lt;Watchlist&amp;gt;&amp;gt;&lt;br/&gt; getWatchlist(): ResponseEntity&amp;lt;List&amp;lt;Watchlist&amp;gt;&amp;gt;&lt;/p&gt;" style="verticalAlign=top;align=left;overflow=fill;fontSize=14;fontFamily=Helvetica;html=1;rounded=0;shadow=0;comic=0;labelBackgroundColor=none;strokeWidth=1;">
      <mxGeometry x="43" y="462" width="558" height="156" as="geometry" />
    </mxCell>
    <mxCell id="node17" parent="1" vertex="1" value="&lt;p style=&quot;margin:0px;margin-top:4px;text-align:center;&quot;&gt;&lt;b&gt;WatchlistRepository&lt;/b&gt;&lt;/p&gt;&lt;hr size=&quot;1&quot;/&gt;&lt;p style=&quot;margin:0 0 0 4px;line-height:1.6;&quot;&gt; findByUserIdAndMovieId(Long, Long): Watchlist&lt;br/&gt; findByUserIdAndStatus(Long, WatchlistStatus): List&amp;lt;Watchlist&amp;gt;&lt;br/&gt; findByUserId(Long): List&amp;lt;Watchlist&amp;gt;&lt;/p&gt;" style="verticalAlign=top;align=left;overflow=fill;fontSize=14;fontFamily=Helvetica;html=1;rounded=0;shadow=0;comic=0;labelBackgroundColor=none;strokeWidth=1;">
      <mxGeometry x="-141" y="3506" width="487" height="117" as="geometry" />
    </mxCell>
    <mxCell id="node35" parent="1" vertex="1" value="&lt;p style=&quot;margin:0px;margin-top:4px;text-align:center;&quot;&gt;&lt;b&gt;WatchlistService&lt;/b&gt;&lt;/p&gt;&lt;hr size=&quot;1&quot;/&gt;&lt;p style=&quot;margin:0 0 0 4px;line-height:1.6;&quot;&gt; userService: UserService&lt;br/&gt; movieService: MovieService&lt;br/&gt; watchlistRepository: WatchlistRepository&lt;br/&gt; getWatchlist(Long): List&amp;lt;Watchlist&amp;gt;&lt;br/&gt; removeFromWatchlist(Long, Long): void&lt;br/&gt; getWatchlistByStatus(Long, WatchlistStatus): List&amp;lt;Watchlist&amp;gt;&lt;br/&gt; addToWatchlist(Long, Long, WatchlistStatus): Watchlist&lt;/p&gt;" style="verticalAlign=top;align=left;overflow=fill;fontSize=14;fontFamily=Helvetica;html=1;rounded=0;shadow=0;comic=0;labelBackgroundColor=none;strokeWidth=1;">
      <mxGeometry x="245" y="3078" width="475" height="204" as="geometry" />
    </mxCell>
    <mxCell id="node34" parent="1" vertex="1" value="&lt;p style=&quot;margin:0px;margin-top:4px;text-align:center;&quot;&gt;&lt;b&gt;WatchlistStatus&lt;/b&gt;&lt;/p&gt;&lt;hr size=&quot;1&quot;/&gt;&lt;p style=&quot;margin:0 0 0 4px;line-height:1.6;&quot;&gt; DROPPED: WatchlistStatus&lt;br/&gt; WATCHING: WatchlistStatus&lt;br/&gt; COMPLETED: WatchlistStatus&lt;br/&gt; PLAN_TO_WATCH: WatchlistStatus&lt;/p&gt;" style="verticalAlign=top;align=left;overflow=fill;fontSize=14;fontFamily=Helvetica;html=1;rounded=0;shadow=0;comic=0;labelBackgroundColor=none;strokeWidth=1;">
      <mxGeometry x="-319" y="-166" width="282" height="143" as="geometry" />
    </mxCell>
    <mxCell id="node26" parent="1" vertex="1" value="&lt;p style=&quot;margin:0px;margin-top:4px;text-align:center;&quot;&gt;&lt;b&gt;application.properties&lt;/b&gt;&lt;/p&gt;&lt;hr size=&quot;1&quot;/&gt;&lt;p style=&quot;margin:0 0 0 4px;line-height:1.6;&quot;&gt; jwt.expiration: &lt;br/&gt; spring.jpa.hibernate.ddl-auto: &lt;br/&gt; filmrecom.app.jwtSecret: &lt;br/&gt; spring.sql.init.mode: &lt;br/&gt; spring.jpa.open-in-view: &lt;br/&gt; server.port: &lt;br/&gt; spring.jpa.properties.hibernate.format_sql: &lt;br/&gt; jwt.secret: &lt;br/&gt; filmrecom.app.jwtExpirationMs: &lt;/p&gt;" style="verticalAlign=top;align=left;overflow=fill;fontSize=14;fontFamily=Helvetica;html=1;rounded=0;shadow=0;comic=0;labelBackgroundColor=none;strokeWidth=1;">
      <mxGeometry x="579" y="2734" width="327" height="252" as="geometry" />
    </mxCell>
    <mxCell id="node29" parent="1" vertex="1" value="&lt;p style=&quot;margin:0px;margin-top:4px;text-align:center;&quot;&gt;&lt;b&gt;pom.xml&lt;/b&gt;&lt;/p&gt;&lt;hr size=&quot;1&quot;/&gt;" style="verticalAlign=top;align=left;overflow=fill;fontSize=14;fontFamily=Helvetica;html=1;rounded=0;shadow=0;comic=0;labelBackgroundColor=none;strokeWidth=1;">
      <mxGeometry x="19" y="-112" width="86" height="27" as="geometry" />
    </mxCell>
    <mxCell id="edge0" edge="1" value="" parent="1" source="node3" target="node15" style="html=1;rounded=1;edgeStyle=orthogonalEdgeStyle;dashed=0;startArrow=block;startSize=12;endArrow=none;strokeColor=#595959;exitX=0.500;exitY=0.000;exitDx=0;exitDy=0;entryX=0.500;entryY=1.001;entryDx=0;entryDy=0;">
      <mxGeometry width="50" height="50" relative="1" as="geometry">
        <Array as="points">
          <mxPoint x="1322" y="480" />
          <mxPoint x="1302" y="480" />
        </Array>
      </mxGeometry>
    </mxCell>
    <mxCell id="edge4" edge="1" value="" parent="1" source="node43" target="node25" style="html=1;rounded=1;edgeStyle=orthogonalEdgeStyle;dashed=0;startArrow=block;startSize=12;endArrow=none;strokeColor=#595959;exitX=0.500;exitY=0.000;exitDx=0;exitDy=0;entryX=0.500;entryY=1.001;entryDx=0;entryDy=0;">
      <mxGeometry width="50" height="50" relative="1" as="geometry">
        <Array as="points" />
      </mxGeometry>
    </mxCell>
    <mxCell id="edge2" edge="1" value="" parent="1" source="node42" target="node24" style="html=1;rounded=1;edgeStyle=orthogonalEdgeStyle;dashed=0;startArrow=block;startSize=12;endArrow=none;strokeColor=#595959;exitX=0.500;exitY=0.001;exitDx=0;exitDy=0;entryX=0.500;entryY=1.001;entryDx=0;entryDy=0;">
      <mxGeometry width="50" height="50" relative="1" as="geometry">
        <Array as="points" />
      </mxGeometry>
    </mxCell>
    <mxCell id="label14" parent="edge2" vertex="1" connectable="0" value="removed" style="edgeLabel;resizable=0;html=1;align=left;verticalAlign=top;strokeColor=default;">
      <mxGeometry x="90" y="30" as="geometry" />
    </mxCell>
    <mxCell id="edge1" edge="1" value="" parent="1" source="node37" target="node25" style="html=1;rounded=1;edgeStyle=orthogonalEdgeStyle;dashed=0;startArrow=block;startSize=12;endArrow=none;strokeColor=#595959;exitX=0.500;exitY=0.000;exitDx=0;exitDy=0;entryX=0.500;entryY=1.001;entryDx=0;entryDy=0;">
      <mxGeometry width="50" height="50" relative="1" as="geometry">
        <Array as="points">
          <mxPoint x="882" y="3440" />
          <mxPoint x="-158" y="3440" />
        </Array>
      </mxGeometry>
    </mxCell>
    <mxCell id="edge3" edge="1" value="" parent="1" source="node17" target="node25" style="html=1;rounded=1;edgeStyle=orthogonalEdgeStyle;dashed=0;startArrow=block;startSize=12;endArrow=none;strokeColor=#595959;exitX=0.500;exitY=0.000;exitDx=0;exitDy=0;entryX=0.500;entryY=1.001;entryDx=0;entryDy=0;">
      <mxGeometry width="50" height="50" relative="1" as="geometry">
        <Array as="points">
          <mxPoint x="102" y="3440" />
          <mxPoint x="-158" y="3440" />
        </Array>
      </mxGeometry>
    </mxCell>
  </root>
</mxGraphModel>